<?xml version="1.0" standalone="no"?>
<!DOCTYPE svg PUBLIC "-//W3C//DTD SVG 20010904//EN"
 "http://www.w3.org/TR/2001/REC-SVG-20010904/DTD/svg10.dtd">
<svg version="1.0" xmlns="http://www.w3.org/2000/svg"
 width="500.000000pt" height="183.000000pt" viewBox="0 0 500.000000 183.000000"
 preserveAspectRatio="xMidYMid meet">

<g transform="translate(0.000000,183.000000) scale(0.100000,-0.100000)"
fill="#000000" stroke="none">
<path d="M560 688 c0 -164 5 -313 11 -338 25 -110 103 -163 232 -158 l72 3 3
72 3 73 -49 0 c-38 0 -53 5 -70 23 -20 21 -22 34 -22 140 l0 117 70 0 70 0 0
85 0 85 -70 0 -70 0 0 95 0 95 -90 0 -90 0 0 -292z"/>
<path d="M1660 585 l0 -395 90 0 90 0 0 395 0 395 -90 0 -90 0 0 -395z"/>
<path d="M3300 663 c0 -287 2 -322 19 -358 37 -82 110 -118 224 -113 l62 3 3
72 3 73 -46 0 c-35 0 -52 6 -70 25 -24 23 -25 30 -25 140 l0 115 75 0 75 0 0
85 0 84 -72 3 -73 3 -3 93 -3 92 -84 0 -85 0 0 -317z"/>
<path d="M2143 781 c-293 -101 -277 -518 23 -596 74 -19 115 -19 189 0 64 17
111 48 144 94 l21 29 -62 40 -63 40 -25 -23 c-71 -66 -194 -57 -240 17 -36 59
-41 58 201 58 l222 0 -6 77 c-10 138 -81 233 -199 268 -68 20 -141 19 -205 -4z
m167 -136 c33 -17 60 -52 60 -77 0 -16 -12 -18 -125 -18 -137 0 -143 3 -108
57 32 49 116 67 173 38z"/>
<path d="M2915 785 c-22 -9 -51 -27 -65 -40 -34 -33 -40 -32 -40 10 l0 35 -85
0 -85 0 0 -300 0 -300 90 0 90 0 0 185 c0 198 5 222 50 248 43 26 85 21 122
-12 l33 -29 3 -196 3 -196 85 0 84 0 0 213 c0 117 -5 229 -11 250 -12 43 -59
101 -100 122 -43 23 -128 27 -174 10z"/>
<path d="M3748 784 c-83 -44 -53 -164 41 -164 32 0 44 6 65 31 14 17 26 39 26
50 0 32 -26 74 -55 87 -33 15 -44 15 -77 -4z"/>
<path d="M320 705 l0 -85 85 0 85 0 0 85 0 85 -85 0 -85 0 0 -85z"/>
<path d="M1165 777 c-92 -36 -152 -96 -185 -184 -69 -185 59 -385 257 -401 34
-2 83 1 110 7 33 9 49 9 51 2 2 -7 37 -11 88 -11 l84 0 0 300 0 300 -84 0
c-55 0 -86 -4 -88 -12 -3 -9 -12 -9 -38 0 -42 15 -156 14 -195 -1z m183 -157
c97 -59 95 -202 -3 -257 -22 -13 -53 -23 -69 -23 -69 0 -146 79 -146 150 0 19
11 52 25 75 41 71 126 95 193 55z"/>
<path d="M3772 420 c-93 -57 -67 -212 39 -234 59 -11 139 26 139 66 0 18 -40
18 -59 -1 -47 -47 -121 -9 -121 62 0 46 28 77 70 77 17 0 39 -9 50 -20 22 -22
29 -24 49 -11 19 12 -1 47 -39 66 -40 21 -89 19 -128 -5z"/>
<path d="M4055 420 c-34 -22 -65 -74 -65 -108 0 -13 6 -35 14 -50 63 -123 246
-90 246 44 0 59 -21 97 -64 118 -46 21 -94 20 -131 -4z m124 -56 c28 -36 27
-79 -4 -109 -30 -30 -64 -32 -99 -4 -33 26 -37 88 -6 119 30 30 83 27 109 -6z"/>
<path d="M4310 315 l0 -125 25 0 c25 0 25 1 25 83 0 90 13 117 58 117 41 0 52
-25 52 -116 0 -83 0 -84 25 -84 24 0 25 2 25 73 0 89 15 121 56 125 45 4 57
-17 62 -114 4 -81 5 -84 29 -84 l25 0 -4 99 c-3 89 -6 102 -27 125 -30 32 -87
35 -122 7 -24 -19 -25 -19 -48 0 -28 23 -78 25 -108 4 -19 -13 -22 -13 -27 0
-3 8 -15 15 -26 15 -19 0 -20 -6 -20 -125z"/>
</g>
</svg>
